<svg enable-background="new 0 0 50 50" height="50" viewBox="0 0 50 50" width="50" xmlns="http://www.w3.org/2000/svg"><path d="m32.4 38.4h-1.2-11.8-.6c1.6 5.8-.6 6.6-10.2 6.6v3h12.2 8.9 11.5v-3c-9.5 0-10.4-.8-8.8-6.6" fill="#7a7a7a"/><path d="m47 .7h-44.3c-1.5 0-2.7 1.4-2.7 2.9v32c0 1.5 1.2 2.8 2.7 2.8h44.3c1.5 0 3-1.3 3-2.8v-32c0-1.5-1.5-2.9-3-2.9m-.8 3.9v29.9h-42.4v-29.9l42.4-.1z" fill="#a0a1a2"/><path d="m46.2 34.5h-42.4v-29.9l42.4-.1z" fill="#59b4d9"/><path d="m3.8 34.5v-29.9l38.7-.1 4.5-3.8h-44.3c-1.5 0-2.7 1.4-2.7 2.9v32c0 1.5 1.2 2.8 2.7 2.8h1.1l4.6-3.8h-4.6z" fill="#fff" opacity=".2"/><path d="m3.8 34.5v-29.9l38.7-.1-38.7.1z" fill="#59b4d9"/><path d="m8.7 45h32.7v3h-32.7z" fill="#a0a1a2"/><g fill="#fff"><path d="m8.6 13.3-.5-.5c-.1-.1-.1-.3 0-.5l1.4-1.2c0-.1.1-.1.2-.1s.2 0 .2.1l3.7 4 6.4-8.1c.1-.1.2-.1.3-.1s.1 0 .2.1l1.5 1c.1.1.1.1.1.2s0 .2-.1.2l-8.3 10.5z"/><path d="m22 13.3h20v3.3h-20z" opacity=".6"/><path d="m8.6 26.4-.5-.5c-.1-.1-.1-.3 0-.5l1.4-1.2c.1-.1.1-.1.2-.1s.2 0 .2.1l3.7 4 6.4-8.1c.1-.1.2-.1.3-.1s.1 0 .2.1l1.5 1.1c.1.1.1.1.1.2s0 .2-.1.2l-8.2 10.4z"/><path d="m22 26.4h20v3.3h-20z" opacity=".6"/></g></svg>