<svg enable-background="new 0 0 50 50" height="50" viewBox="0 0 50 50" width="50" xmlns="http://www.w3.org/2000/svg"><path d="m47.092 8.89c-2.544-4.209-6.572-7.174-11.343-8.349-1.451-.358-2.937-.541-4.42-.541-8.472 0-15.818 5.768-17.863 14.024-1.123 4.584-.389 9.441 1.974 13.547l-14.068 14.18c-1.841 1.861-1.828 4.862.033 6.704.922.914 2.13 1.372 3.336 1.372 1.219 0 2.441-.469 3.368-1.404l14.002-14.115c1.524.895 3.14 1.566 4.827 1.981 1.447.356 2.93.537 4.408.537 8.487 0 15.834-5.76 17.864-14.008 1.181-4.769.428-9.716-2.118-13.928z" fill="#59b4d9"/><path d="m43.859 21.499c-1.423 5.775-6.566 9.81-12.513 9.81-1.034 0-2.073-.126-3.087-.375-1.558-.385-2.97-1.051-4.22-1.916-1.317-.911-2.438-2.05-3.324-3.352-1.99-2.922-2.795-6.636-1.889-10.328 1.43-5.782 6.576-9.819 12.51-9.819 1.035 0 2.076.126 3.094.377 3.341.823 6.162 2.899 7.945 5.848 1.783 2.947 2.31 6.412 1.484 9.755" fill="#fff"/><path d="m43.859 21.499c-1.423 5.775-6.566 9.81-12.513 9.81-1.034 0-2.073-.126-3.087-.375-1.558-.385-2.97-1.051-4.22-1.916-1.317-.911-2.438-2.05-3.324-3.352-1.99-2.922-2.795-6.636-1.889-10.328 1.43-5.782 6.576-9.819 12.51-9.819 1.035 0 2.076.126 3.094.377 3.341.823 6.162 2.899 7.945 5.848 1.783 2.947 2.31 6.412 1.484 9.755" fill="#59b4d9" opacity=".1"/><path d="m38.308 7.577c-1.178-.761-2.478-1.335-3.878-1.681-1.018-.252-2.059-.378-3.095-.378-5.933 0-11.079 4.038-12.509 9.82-.906 3.692-.1 7.406 1.889 10.329.349.513.746.993 1.166 1.452 2.734-8.451 8.691-15.447 16.427-19.542" fill="#59b4d9" opacity=".3"/><path d="m20.913 33.556c-1.865-1.291-3.463-2.902-4.746-4.786-.265-.389-.494-.795-.727-1.199l-1.323 1.333-.145.146c.174.286.354.567.543.844 1.422 2.089 3.191 3.874 5.261 5.306.176.122.619.293 1.004.45l1.331-1.342c-.405-.237-.807-.482-1.198-.752z" fill="#1e1e1e" opacity=".5"/></svg>