<svg enable-background="new 0 0 50 50" height="50" viewBox="0 0 50 50" width="50" xmlns="http://www.w3.org/2000/svg"><path d="m6.4 39.8v-14.8h37.2v14.8" fill="none" stroke="#fff" stroke-linejoin="round" stroke-miterlimit="10" stroke-width="4.75"/><path d="m22.6 14h4.8v24.5h-4.8z" fill="#fff"/><path d="m28.7 0h-7.3c-2.1 0-3.8 1.7-3.8 3.8v6.7c0 2.1 1.7 3.8 3.8 3.8h7.3c2.1 0 3.8-1.7 3.8-3.8v-6.7c0-2.1-1.7-3.8-3.8-3.8zm.4 10.2c0 .4-.3.7-.7.7h-6.8c-.4 0-.7-.3-.7-.7v-6.1c0-.4.3-.7.7-.7h6.8c.4 0 .7.3.7.7z" fill="#fff"/><g fill="#59b4d9"><path d="m28.7 0h-7.3c-2.1 0-3.8 1.7-3.8 3.8v6.7c0 2.1 1.7 3.8 3.8 3.8h7.3c2.1 0 3.8-1.7 3.8-3.8v-6.7c0-2.1-1.7-3.8-3.8-3.8zm.4 10.2c0 .4-.3.7-.7.7h-6.8c-.4 0-.7-.3-.7-.7v-6.1c0-.4.3-.7.7-.7h6.8c.4 0 .7.3.7.7z"/><path d="m27.3 37.7h-4.6c-2.1 0-3.8 1.7-3.8 3.8v4.6c0 2.1 1.7 3.8 3.8 3.8h4.6c2.1 0 3.8-1.7 3.8-3.8v-4.6c0-2.1-1.7-3.8-3.8-3.8zm.4 8.2c0 .4-.3.7-.7.7h-4c-.4 0-.7-.3-.7-.7v-4.1c0-.4.3-.7.7-.7h4c.4 0 .7.3.7.7z"/><path d="m0 41.6v4.6c0 2.1 1.7 3.8 3.8 3.8h4.6c2.1 0 3.8-1.7 3.8-3.8v-4.6c0-2.1-1.7-3.8-3.8-3.8h-4.6c-2.1-.1-3.8 1.6-3.8 3.8zm3.4.2c0-.4.3-.7.7-.7h4.1c.4 0 .7.3.7.7v4.1c0 .4-.3.7-.7.7h-4.1c-.4 0-.7-.3-.7-.7z"/><path d="m46.2 37.7h-4.6c-2.1 0-3.8 1.7-3.8 3.8v4.6c0 2.1 1.7 3.8 3.8 3.8h4.6c2.1 0 3.8-1.7 3.8-3.8v-4.6c0-2.1-1.7-3.8-3.8-3.8zm.4 8.2c0 .4-.3.7-.7.7h-4.1c-.4 0-.7-.3-.7-.7v-4.1c0-.4.3-.7.7-.7h4.1c.4 0 .7.3.7.7z"/></g></svg>