<svg 
 xmlns="http://www.w3.org/2000/svg"
 xmlns:xlink="http://www.w3.org/1999/xlink"
 width="11px" height="15px">
<path fill-rule="evenodd"  fill="rgb(112, 112, 112)"
 d="M9.045,5.852 L9.045,4.029 C9.045,2.016 7.367,0.383 5.297,0.383 C3.227,0.383 1.549,2.016 1.549,4.029 L1.549,5.852 C0.860,5.852 0.300,6.397 0.300,7.068 L0.300,13.145 C0.300,13.817 0.860,14.361 1.549,14.361 L9.045,14.361 C9.735,14.361 10.294,13.817 10.294,13.145 L10.294,7.068 C10.294,6.397 9.735,5.852 9.045,5.852 ZM2.799,4.029 C2.799,2.687 3.917,1.599 5.297,1.599 C6.677,1.599 7.795,2.687 7.795,4.029 L7.795,5.852 L2.799,5.852 L2.799,4.029 ZM9.045,13.145 L1.549,13.145 L1.549,7.068 L9.045,7.068 L9.045,13.145 ZM4.672,10.546 L4.672,11.322 C4.672,11.657 4.952,11.930 5.297,11.930 C5.642,11.930 5.922,11.657 5.922,11.322 L5.922,10.546 C6.293,10.335 6.546,9.948 6.546,9.499 C6.546,8.827 5.987,8.283 5.297,8.283 C4.607,8.283 4.048,8.827 4.048,9.499 C4.048,9.948 4.301,10.335 4.672,10.546 Z"/>
</svg>