<svg 
 xmlns="http://www.w3.org/2000/svg"
 xmlns:xlink="http://www.w3.org/1999/xlink"
 width="15px" height="6px">
<path fill-rule="evenodd"  fill="rgb(171, 171, 171)"
 d="M15.000,2.376 L2.340,2.376 L3.771,1.070 C4.038,0.826 4.038,0.431 3.771,0.187 C3.502,-0.057 3.069,-0.057 2.801,0.187 L0.204,2.556 C0.192,2.567 0.179,2.579 0.168,2.592 C0.076,2.688 0.022,2.802 0.005,2.921 C0.000,2.962 -0.002,3.005 0.002,3.046 C0.012,3.189 0.078,3.330 0.197,3.442 L0.197,3.442 C0.198,3.442 0.198,3.442 0.198,3.443 C0.198,3.443 0.199,3.444 0.200,3.444 L2.800,5.816 C3.068,6.060 3.502,6.060 3.770,5.816 C3.903,5.693 3.970,5.534 3.970,5.375 C3.970,5.213 3.904,5.054 3.770,4.931 L2.339,3.627 L15.000,3.627 "/>
</svg>