<svg 
 xmlns="http://www.w3.org/2000/svg"
 xmlns:xlink="http://www.w3.org/1999/xlink"
 width="16px" height="7px">
<path fill-rule="evenodd"  fill="rgb(7, 7, 7)"
 d="M0.250,2.952 L12.910,2.952 L11.479,1.638 C11.212,1.394 11.212,0.995 11.479,0.750 C11.747,0.505 12.181,0.505 12.449,0.750 L15.046,3.132 C15.058,3.143 15.071,3.155 15.082,3.168 C15.174,3.264 15.228,3.379 15.245,3.498 C15.250,3.540 15.252,3.583 15.248,3.625 C15.238,3.768 15.172,3.909 15.053,4.022 L15.053,4.022 C15.052,4.022 15.052,4.022 15.052,4.023 C15.052,4.023 15.051,4.025 15.050,4.025 L12.450,6.409 C12.182,6.654 11.748,6.654 11.480,6.409 C11.347,6.286 11.280,6.126 11.280,5.965 C11.280,5.803 11.346,5.643 11.480,5.519 L12.911,4.208 L0.250,4.208 "/>
</svg>