<svg 
 xmlns="http://www.w3.org/2000/svg"
 xmlns:xlink="http://www.w3.org/1999/xlink"
 width="14.3px" height="14.3px">
<path fill-rule="evenodd"  stroke="rgb(249, 249, 249)" stroke-width="0.2px" stroke-linecap="butt" stroke-linejoin="miter" fill="rgb(112, 112, 112)"
 d="M12.099,2.709 C10.904,1.618 9.417,1.073 7.642,1.073 C5.775,1.073 4.185,1.692 2.872,2.934 C1.559,4.176 0.901,5.719 0.901,7.567 C0.901,9.339 1.527,10.861 2.775,12.137 C4.029,13.414 5.714,14.052 7.834,14.052 C9.112,14.052 10.366,13.792 11.596,13.271 C11.997,13.101 12.192,12.646 12.029,12.246 L12.029,12.246 C11.861,11.833 11.385,11.642 10.971,11.817 C9.901,12.272 8.853,12.500 7.832,12.500 C6.206,12.500 4.947,12.010 4.053,11.028 C3.163,10.048 2.717,8.897 2.717,7.575 C2.717,6.140 3.195,4.944 4.150,3.982 C5.102,3.024 6.275,2.542 7.666,2.542 C8.947,2.542 10.029,2.937 10.912,3.726 C11.794,4.515 12.235,5.508 12.235,6.704 C12.235,7.522 12.032,8.206 11.628,8.748 C11.225,9.294 10.805,9.564 10.369,9.564 C10.134,9.564 10.016,9.439 10.016,9.188 C10.016,8.984 10.032,8.746 10.062,8.470 L10.559,4.443 L8.848,4.443 L8.738,4.838 C8.302,4.485 7.823,4.308 7.305,4.308 C6.481,4.308 5.775,4.634 5.190,5.282 C4.602,5.931 4.310,6.768 4.310,7.790 C4.310,8.788 4.569,9.596 5.091,10.207 C5.612,10.821 6.238,11.126 6.971,11.126 C7.626,11.126 8.184,10.853 8.650,10.310 C9.000,10.832 9.516,11.092 10.198,11.092 C11.201,11.092 12.067,10.660 12.797,9.794 C13.527,8.931 13.893,7.888 13.893,6.667 C13.893,5.121 13.297,3.800 12.099,2.709 ZM8.158,8.801 C7.856,9.204 7.495,9.408 7.075,9.408 C6.789,9.408 6.559,9.259 6.385,8.963 C6.209,8.666 6.120,8.298 6.120,7.856 C6.120,7.311 6.243,6.871 6.489,6.537 C6.735,6.204 7.040,6.034 7.404,6.034 C7.719,6.034 8.000,6.159 8.246,6.410 C8.492,6.662 8.615,6.996 8.615,7.414 C8.612,7.935 8.460,8.396 8.158,8.801 Z"/>
</svg>